<svg xmlns="http://www.w3.org/2000/svg" viewBox="0 0 64 64">
  <rect width="64" height="64" rx="16" fill="#F5F0E8"/>
  <circle cx="32" cy="32" r="24" fill="#EEE9E0" stroke="#3a3530" stroke-width="3"/>
  <path d="M14 32 C20 22 26 18 32 18 C38 18 44 22 50 32 C44 42 38 46 32 46 C26 46 20 42 14 32Z" fill="#3a3530"/>
  <circle cx="32" cy="32" r="10" fill="#F5F0E8"/>
  <circle cx="32" cy="32" r="5" fill="#3a3530"/>
  <path d="M48 11 L50 16 L55 18 L50 20 L48 25 L46 20 L41 18 L46 16 Z" fill="#3a3530"/>
  <path d="M19 49 C17 46 12 46 12 50 C12 54 19 58 19 58 C19 58 26 54 26 50 C26 46 21 46 19 49Z" fill="#3a3530"/>
</svg>
